<svg viewBox="0 0 96 96" width="96" height="96" xmlns="http://www.w3.org/2000/svg" fill="context-fill" fill-opacity="context-fill-opacity"><path d="m90 53.2h-2.2c-3.6 0-6.2.9-7.9 2.7-1.6 1.8-2.4 5-2.4 9.5v5.7c0 4.9-1.2 8.6-3.6 11.1s-5.6 3.8-9.5 3.8h-8.4v-8.6h3.5c1.2 0 2.3-.1 3.3-.3s1.8-.7 2.5-1.3c.7-.7 1.2-1.6 1.6-2.9s.5-2.9.5-4.9v-4.2c0-3.6.8-6.6 2.4-9s3.9-4.3 6.9-5.7v-1.1c-3-1.4-5.3-3.3-6.9-5.7s-2.4-5.4-2.4-9v-4.2c0-2-.2-3.6-.5-4.9s-.9-2.2-1.6-2.9c-.7-.6-1.5-1.1-2.5-1.3s-2.1-.3-3.3-.3h-3.5v-8.7h8.4c4 0 7.2 1.3 9.5 3.8 2.4 2.5 3.6 6.2 3.6 11.1v5.7c0 4.6.8 7.7 2.4 9.5s4.2 2.7 7.9 2.7h2.2z"/><path d="m40 86h-8.4c-4 0-7.2-1.3-9.5-3.8-2.4-2.5-3.6-6.2-3.6-11.1v-5.7c0-4.6-.8-7.7-2.4-9.5s-4.2-2.7-7.9-2.7h-2.2v-9.5h2.2c3.6 0 6.2-.9 7.9-2.7 1.6-1.8 2.4-5 2.4-9.5v-5.7c0-4.9 1.2-8.6 3.6-11.1s5.6-3.8 9.5-3.8h8.4v8.6h-3.5c-1.2 0-2.3.1-3.3.3s-1.8.7-2.5 1.3c-.7.7-1.2 1.6-1.6 2.9-.3 1.3-.5 2.9-.5 4.9v4.2c0 3.6-.8 6.6-2.4 9s-3.9 4.3-6.9 5.7v1.2c3 1.4 5.3 3.3 6.9 5.7s2.4 5.4 2.4 9v4.2c0 2 .2 3.6.5 4.9s.9 2.2 1.6 2.9 1.5 1.1 2.5 1.3 2.1.3 3.4.3h3.4z"/></svg>